<?xml version="1.0" standalone="no"?>
<!DOCTYPE svg PUBLIC "-//W3C//DTD SVG 20010904//EN"
 "http://www.w3.org/TR/2001/REC-SVG-20010904/DTD/svg10.dtd">
<svg version="1.0" xmlns="http://www.w3.org/2000/svg"
 width="1095.000000pt" height="1095.000000pt" viewBox="0 0 1095.000000 1095.000000"
 preserveAspectRatio="xMidYMid meet">
<metadata>
Created by potrace 1.11, written by Peter Selinger 2001-2013
</metadata>
<g transform="translate(0.000000,1095.000000) scale(0.100000,-0.100000)"
fill="#000000" stroke="none">
<path d="M5660 8110 c-52 -27 -100 -50 -105 -50 -6 0 -27 11 -47 25 -40 27
-68 32 -68 12 0 -7 15 -37 34 -66 31 -47 33 -56 24 -84 -6 -18 -17 -40 -25
-49 -27 -31 -11 -59 69 -122 102 -80 119 -104 124 -172 3 -47 0 -65 -23 -105
-42 -78 -142 -149 -208 -149 -18 0 -31 9 -43 30 -30 52 -42 46 -43 -20 -1 -33
-2 -63 -3 -67 -12 -51 -39 -93 -61 -93 -7 0 -22 9 -35 20 -28 24 -35 20 -50
-28 -15 -47 -97 -213 -115 -230 -19 -20 -52 1 -60 37 -13 62 13 128 80 197 53
55 113 123 145 164 19 25 43 53 53 63 27 27 83 118 97 159 17 48 0 107 -48
160 -39 43 -116 82 -147 74 -56 -14 -156 -167 -135 -207 13 -24 9 -172 -5
-206 -10 -25 -21 -32 -52 -38 -71 -12 -78 -23 -78 -133 0 -53 -3 -102 -7 -108
-4 -6 -19 -11 -34 -11 -44 0 -52 -19 -56 -140 -4 -101 -7 -114 -30 -145 -33
-43 -125 -88 -195 -95 -80 -9 -85 9 -21 67 50 45 50 45 52 112 2 64 4 70 66
159 51 75 64 101 64 134 l1 40 -50 0 c-53 -1 -150 -44 -267 -118 -61 -40 -117
-56 -189 -57 -40 0 -52 -5 -81 -36 -72 -73 -108 -195 -74 -247 29 -43 29 -71
0 -98 -43 -39 -74 -112 -77 -179 -3 -58 -4 -61 -68 -125 -116 -119 -319 -276
-504 -392 -156 -98 -291 -160 -520 -243 -184 -66 -288 -106 -340 -130 -11 -5
-74 -30 -140 -56 -242 -94 -532 -245 -640 -334 -27 -22 -221 -211 -430 -419
-209 -207 -409 -399 -445 -426 -36 -26 -87 -66 -115 -87 -27 -22 -117 -88
-200 -148 -82 -60 -154 -113 -160 -118 -5 -4 -48 -36 -95 -72 -142 -106 -232
-181 -302 -249 -60 -58 -68 -70 -68 -103 0 -45 42 -98 104 -131 34 -18 58 -22
141 -22 135 0 237 18 330 60 69 32 160 56 227 60 167 12 175 14 225 54 31 25
69 43 108 53 48 12 64 21 80 46 26 40 51 49 76 26 43 -39 119 -10 211 79 19
18 51 46 70 61 36 26 36 27 72 9 l36 -17 33 32 c17 17 39 30 48 29 52 -8 126
-98 114 -139 -4 -13 -40 -72 -80 -133 -40 -60 -78 -126 -85 -146 -12 -33 -11
-37 14 -62 14 -14 26 -32 26 -39 0 -12 -25 -55 -39 -68 -3 -3 -30 -31 -59 -63
-52 -58 -64 -91 -40 -115 31 -31 90 -8 198 78 41 33 89 63 107 66 38 7 68 -11
160 -98 34 -32 70 -58 80 -59 10 0 35 -1 55 -1 31 0 42 -7 63 -34 14 -19 35
-34 45 -34 11 0 47 21 80 46 58 46 128 71 250 90 19 3 76 17 125 30 50 14 95
26 100 27 27 6 83 47 110 80 106 131 204 227 232 227 6 0 24 5 40 11 15 6 90
11 166 12 75 1 137 5 137 10 0 4 8 4 18 -1 20 -10 162 -3 162 8 0 4 15 8 34 8
18 0 47 7 64 16 17 9 37 16 44 16 7 0 46 25 86 55 69 53 109 92 182 178 l32
37 110 0 c116 0 145 8 184 52 15 16 23 40 26 82 5 55 8 62 49 98 24 21 58 46
74 55 17 9 32 19 35 23 3 4 37 29 75 55 39 26 91 67 117 91 31 29 56 44 74 44
42 0 136 56 170 103 17 23 39 64 49 91 23 62 48 86 116 110 137 48 179 71 213
118 l29 41 82 -7 c78 -6 85 -4 138 24 69 37 95 37 178 4 76 -31 95 -31 143 -3
23 14 45 19 60 15 37 -9 86 -55 86 -80 0 -55 -80 -78 -241 -69 -139 7 -202 -6
-197 -40 2 -17 12 -23 41 -28 47 -7 49 -9 41 -45 -4 -19 -28 -47 -72 -84 -35
-30 -72 -62 -81 -71 -34 -33 -105 -83 -120 -86 -91 -13 -101 -23 -101 -102 0
-38 -4 -51 -14 -51 -8 0 -18 5 -21 10 -3 6 -10 10 -14 10 -14 0 -35 -62 -33
-95 2 -28 -2 -35 -31 -48 -37 -18 -54 -47 -63 -110 -9 -57 -27 -83 -75 -107
-44 -23 -46 -27 -53 -85 -3 -22 -14 -73 -25 -112 -22 -76 -27 -175 -12 -216 7
-19 5 -28 -10 -40 -26 -23 -24 -47 4 -47 29 0 39 8 76 54 23 29 30 45 26 67
-4 21 -1 29 10 29 8 0 21 14 30 30 11 22 23 30 43 30 21 0 34 11 60 50 35 51
94 93 150 105 35 7 46 -9 12 -20 -23 -7 -60 -56 -60 -78 0 -31 22 -28 83 9
l62 39 120 0 c66 0 137 -4 158 -8 43 -8 86 -35 87 -54 0 -18 41 -16 69 3 31
22 52 9 114 -67 45 -54 52 -59 89 -59 34 0 46 -7 89 -50 46 -46 49 -53 49
-100 0 -41 6 -61 32 -98 53 -76 203 -246 231 -261 23 -12 27 -21 27 -60 0 -28
7 -55 18 -68 24 -32 127 -55 237 -55 102 1 129 5 159 26 11 9 39 28 62 44 63
45 83 40 132 -32 91 -136 142 -158 201 -91 17 20 31 40 31 45 0 5 10 14 21 21
20 10 28 5 82 -50 95 -96 126 -93 210 19 122 164 155 190 240 190 45 0 55 4
96 43 26 23 62 53 80 67 19 14 45 35 60 48 31 26 87 55 118 59 13 2 34 -4 48
-13 27 -18 25 -18 155 36 41 17 93 34 115 38 65 10 175 7 250 -7 94 -18 226
-12 252 12 13 11 36 17 64 17 47 0 147 25 164 41 5 5 16 9 25 9 8 0 64 30 123
66 132 81 165 88 309 70 50 -6 62 -4 87 13 26 18 30 19 41 5 11 -12 10 -20 -6
-42 -22 -29 -41 -73 -49 -110 -3 -12 -7 -32 -11 -45 -12 -49 -6 -117 15 -160
28 -57 27 -72 -9 -110 -37 -40 -38 -56 -2 -89 20 -19 42 -27 88 -31 37 -4 88
-19 129 -38 82 -38 129 -35 200 14 71 49 87 57 122 57 39 0 46 -11 53 -75 4
-42 8 -50 28 -53 27 -4 111 35 202 93 81 52 122 91 118 113 -6 30 -34 23 -74
-18 -58 -62 -78 -67 -124 -30 -111 88 -106 191 14 290 79 66 91 86 91 156 0
111 -51 128 -98 32 -16 -31 -35 -59 -43 -62 -16 -6 -34 30 -34 68 0 43 39 177
61 207 20 28 23 29 91 27 l71 -3 9 30 c39 138 -2 187 -156 186 -65 0 -73 -2
-95 -28 -12 -15 -31 -38 -42 -50 -27 -33 -46 -19 -68 51 -20 67 -47 84 -73 47
-14 -20 -15 -20 -48 -2 -50 26 -75 65 -75 114 0 33 10 56 44 105 l43 63 -7 94
c-7 85 -5 97 13 127 12 18 35 42 52 53 45 29 90 126 80 172 -11 46 -43 79 -97
99 -23 9 -43 18 -43 19 0 1 -5 27 -11 59 -18 100 -61 146 -169 181 -65 21
-104 41 -143 75 -103 87 -133 143 -124 229 10 89 44 175 90 227 46 52 47 57
33 209 l-8 80 41 33 c59 47 54 102 -11 125 -33 12 -304 6 -478 -9 -69 -7 -92
-15 -167 -66 l-48 -33 -160 -1 c-198 -2 -271 8 -360 52 -76 37 -124 77 -200
167 -27 32 -65 67 -85 77 -65 33 -134 126 -202 270 -68 148 -171 459 -203 620
-28 142 -44 187 -75 213 -24 20 -27 30 -23 59 4 32 1 38 -31 57 -31 19 -43 37
-52 76 -41 169 -75 190 -190 115 -34 -22 -75 -43 -92 -46 -28 -6 -30 -4 -37
32 -10 54 -21 71 -57 90 -22 11 -48 15 -87 12 -46 -4 -67 -12 -121 -49 -36
-25 -76 -46 -89 -47 -13 0 -55 20 -96 49 -40 27 -81 49 -91 49 -11 0 -39 -14
-63 -30 -24 -17 -62 -35 -83 -42 -35 -10 -40 -10 -54 10 -19 28 -41 28 -70 1
-14 -13 -37 -22 -60 -23 -34 -1 -41 4 -67 42 l-29 44 -57 -4 -56 -3 -2 34 c-1
18 -6 38 -11 43 -20 20 -67 18 -116 -4 -47 -22 -48 -22 -62 -3 -8 10 -14 32
-14 47 0 39 -25 46 -71 20 -41 -24 -79 -29 -79 -10 0 22 -51 78 -88 97 -20 10
-59 19 -87 20 -133 5 -164 9 -217 25 -76 24 -118 66 -118 117 0 25 -5 39 -12
39 -7 -1 -56 -23 -108 -50z"/>
</g>
</svg>
